<svg xmlns="http://www.w3.org/2000/svg" viewBox="0 0 248.96 239.3">
  <defs>
    <style>
      .cls-1 {
        fill: #231815;
      }

      .cls-2 {
        fill: #fff;
      }

      .cls-3 {
        fill: #009740;
      }
    </style>
  </defs>
  <title>アセット 1</title>
  <g id="レイヤー_2" data-name="レイヤー 2">
    <g id="レイヤー_1-2" data-name="レイヤー 1">
      <g>
        <path class="cls-1" d="M35.5,8.18A.13.13,0,0,1,35.37,8V5a4.89,4.89,0,0,0-3.95-5,4.65,4.65,0,0,0-5.34,4.58L26,34.25h.06L0,57.84,26.67,87.66l0,74.53,97.44,77.11,98.22-77.09,0-74.55L249,57.84,223,34.32a.14.14,0,0,1-.06-.11L223,5a4.89,4.89,0,0,0-3.95-5,4.65,4.65,0,0,0-5.34,4.58V8ZM213,15.57v3.88l-177.63-.2V15.38ZM35.32,30.37V26.58a.13.13,0,0,1,.13-.13L213,26.66V30l-177.52.5A.13.13,0,0,1,35.32,30.37Z"/>
        <g>
          <path class="cls-2" d="M42.79,41.38,32.42,41.2l-.15,8.9v.18l3.09,0,.06-3.39,7.28.13a4.27,4.27,0,0,0,2.16-.39,1.58,1.58,0,0,0,.74-1.43l0-1.94a1.6,1.6,0,0,0-.7-1.46A4.1,4.1,0,0,0,42.79,41.38Zm-7.31,1.76,6.05.1h0a1.85,1.85,0,0,1,.9.15.36.36,0,0,1,.16.37v.93c0,.25-.11.33-.18.37a2.06,2.06,0,0,1-.9.12l-6-.11Z"/>
          <path class="cls-2" d="M57.53,47.16a4,4,0,0,0,2.16-.39,1.6,1.6,0,0,0,.75-1.44l0-2a1.6,1.6,0,0,0-.7-1.46,4.24,4.24,0,0,0-2.15-.46l-10.19-.18h-.18l-.15,8.9v.18l3.1,0,0-3.29,2.39,0,4.7,3.34,0,0,4.7.08-5.45-3.39Zm-7.21-4,6,.11a2,2,0,0,1,.89.14.37.37,0,0,1,.17.38l0,1c0,.25-.1.34-.18.38a1.89,1.89,0,0,1-.89.11l-6.06-.1Z"/>
          <path class="cls-2" d="M74.39,41.39l-8.77-.15a4.26,4.26,0,0,0-2.46.43,2,2,0,0,0-.72,1.75L62.36,48a2.09,2.09,0,0,0,.66,1.8,4.5,4.5,0,0,0,2.44.5l8.77.15h.24a4.21,4.21,0,0,0,2.22-.42,2,2,0,0,0,.71-1.77l.08-4.59a2.05,2.05,0,0,0-.65-1.79A4.46,4.46,0,0,0,74.39,41.39Zm0,1.92-.09,5.16-8.77-.15.09-5.16Z"/>
          <polygon class="cls-2" points="98.51 47.02 95.55 41.43 95.5 41.34 93.35 41.3 90.19 46.88 87.43 41.3 87.38 41.2 84.1 41.14 88.67 50.2 88.72 50.3 90.86 50.34 94.18 44.56 97.2 50.35 97.25 50.45 99.34 50.48 104.14 41.75 104.28 41.49 101.39 41.44 98.51 47.02"/>
          <path class="cls-2" d="M115.75,47.16a4.06,4.06,0,0,0,2.16-.39,1.62,1.62,0,0,0,.74-1.44l0-2a1.58,1.58,0,0,0-.7-1.46,4.2,4.2,0,0,0-2.14-.46l-10.19-.18h-.18l-.16,8.9v.18l3.09,0,.06-3.29,2.38,0,4.7,3.34,0,0,4.69.08-5.44-3.39Zm-7.21-4,6,.11a2,2,0,0,1,.89.14.41.41,0,0,1,.17.38l0,1c0,.25-.11.34-.18.38a2,2,0,0,1-.9.11l-6-.1Z"/>
          <polygon class="cls-2" points="134.6 43.26 134.63 41.42 122.26 41.21 122.07 41.2 121.92 50.1 121.92 50.28 134.41 50.5 134.59 50.5 134.62 48.49 125.09 48.33 125.12 46.53 132.54 46.63 132.58 44.78 125.15 44.69 125.18 43.1 134.6 43.26"/>
          <path class="cls-2" d="M148.24,44.84,141,44.71l0-1.52,7.43.13v1l2.81-.44v-.33a1.82,1.82,0,0,0-.69-1.65,4.6,4.6,0,0,0-2.41-.5l-6.76-.11a4.22,4.22,0,0,0-2.46.43,2.07,2.07,0,0,0-.72,1.76v1a2,2,0,0,0,.65,1.78,4.4,4.4,0,0,0,2.44.52l7.25.13,0,1.61-8.06-.14,0-1.06-2.81.38v.39a2.08,2.08,0,0,0,.66,1.79,4.46,4.46,0,0,0,2.46.52l7.36.12h.24a4,4,0,0,0,2.23-.44,2,2,0,0,0,.73-1.76l0-1.2a2,2,0,0,0-.67-1.77A4.52,4.52,0,0,0,148.24,44.84Z"/>
          <polygon class="cls-2" points="152.57 41.25 152.54 43.17 158.01 43.27 157.88 50.42 161.02 50.48 161.14 43.32 166.63 43.42 166.66 41.49 152.75 41.25 152.57 41.25"/>
          <polygon class="cls-2" points="170.5 41.27 167.37 41.22 167.21 50.11 167.21 50.3 179.1 50.5 179.28 50.51 179.32 48.51 170.38 48.35 170.5 41.27"/>
          <polygon class="cls-2" points="181.67 50.14 181.66 50.33 184.8 50.38 184.96 41.48 184.96 41.3 181.82 41.25 181.67 50.14"/>
          <path class="cls-2" d="M197.85,46.14c0,.12,0,.28,0,.49s0,.34,0,.61l-.27-.21c-.22-.15-.47-.32-.76-.5l-8.29-5.28-.05,0-2.12,0-.16,8.9v.19l2.85,0,.09-4.89c0-.18,0-.39,0-.64s0-.22,0-.33l.09.07.56.4,8.65,5.53,0,0,2.13,0,.16-8.89v-.19l-2.85,0Z"/>
          <path class="cls-2" d="M216.69,44v-.36a1.94,1.94,0,0,0-.67-1.71,4.53,4.53,0,0,0-2.43-.5l-8.22-.15a4.46,4.46,0,0,0-2.46.43,2,2,0,0,0-.71,1.76l-.08,4.59a2,2,0,0,0,.65,1.79,4.48,4.48,0,0,0,2.44.51l8.22.14h.24a4.1,4.1,0,0,0,2.22-.43,2,2,0,0,0,.71-1.77l.06-3.18L209.08,45l0,1.84,4.53.08,0,1.58-8.29-.15.09-5.14,8.29.14,0,1Z"/>
        </g>
        <g>
          <path class="cls-3" d="M86.81,172.53,122,209.87V69.54H86.81ZM98.37,81.1h12.09v99.75L98.37,168Z"/>
          <path class="cls-3" d="M162.51,172.28V69.54H127.3V209.61l11.56-12.26V146.79l12.09-6v43.78Zm-23.65-38.41V81.1H151v46.74Z"/>
          <polygon class="cls-3" points="53.94 110.7 65.44 149.88 81.53 166.93 81.53 69.54 69.97 69.54 69.97 124.13 53.94 69.54 31.92 69.54 42.38 81.74 42.38 152.19 97.03 195.99 53.94 150.29 53.94 110.7"/>
          <polygon class="cls-3" points="195.12 69.54 195.12 105.95 179.09 113.95 179.09 69.54 167.53 69.54 167.53 166.95 179.09 154.69 179.09 126.87 195.12 118.87 195.12 150.29 152.03 195.99 206.68 152.19 206.68 81.74 217.14 69.54 195.12 69.54"/>
        </g>
        <path class="cls-3" d="M11.77,60.35H237.19l-21.45,24-.55.62v.82l0,73-91.1,71.5L33.75,158.75l0-73V85l-.54-.62-21.46-24M7,58.21,31.63,85.77l0,74L124.1,233l93.25-73.2,0-74L242,58.21Z"/>
      </g>
    </g>
  </g>
</svg>
